<?xml version="1.0" standalone="no"?>
<!DOCTYPE svg PUBLIC "-//W3C//DTD SVG 20010904//EN"
 "http://www.w3.org/TR/2001/REC-SVG-20010904/DTD/svg10.dtd">
<svg version="1.0" xmlns="http://www.w3.org/2000/svg"
 width="120.000000pt" height="120.000000pt" viewBox="0 0 120.000000 120.000000"
 preserveAspectRatio="xMidYMid meet">
<metadata>
Created by potrace 1.11, written by Peter Selinger 2001-2013
</metadata>
<g transform="translate(0.000000,120.000000) scale(0.100000,-0.100000)"
fill="#000000" stroke="none">
<path d="M580 1035 l0 -145 -45 34 c-50 39 -104 59 -137 53 -22 -3 -22 -4 -3
-11 150 -58 185 -96 185 -197 l0 -64 -46 -19 c-127 -52 -291 -275 -339 -461
-20 -80 -20 -161 1 -169 31 -12 251 -7 262 7 6 6 12 60 14 119 4 127 15 147
91 155 123 14 147 -15 147 -177 0 -60 4 -100 10 -100 6 0 10 50 10 130 0 126
-1 132 -25 155 -22 23 -32 25 -118 25 -85 0 -96 -2 -115 -23 -20 -21 -22 -34
-22 -124 0 -130 -9 -143 -100 -150 -87 -7 -134 6 -138 37 -12 79 90 288 196
402 132 143 239 144 377 4 65 -67 108 -140 150 -256 22 -62 24 -76 12 -85 -7
-5 -19 -21 -26 -33 -18 -33 2 -80 38 -89 82 -22 124 58 61 117 -16 15 -30 34
-30 42 0 33 -53 167 -92 233 -56 95 -170 208 -242 240 l-56 25 0 235 c0 150
-4 235 -10 235 -6 0 -10 -55 -10 -145z"/>
<path d="M818 1123 c7 -3 16 -2 19 1 4 3 -2 6 -13 5 -11 0 -14 -3 -6 -6z"/>
<path d="M880 1121 c0 -5 5 -13 10 -16 6 -3 10 -2 10 4 0 5 -4 13 -10 16 -5 3
-10 2 -10 -4z"/>
<path d="M783 1069 c9 -6 14 -15 11 -21 -4 -7 -2 -8 5 -4 14 9 -3 36 -23 36
-6 0 -3 -5 7 -11z"/>
<path d="M695 1061 c-3 -5 -2 -12 3 -15 5 -3 9 1 9 9 0 17 -3 19 -12 6z"/>
<path d="M755 1040 c-16 -7 -17 -9 -3 -9 9 -1 20 4 23 9 7 11 7 11 -20 0z"/>
<path d="M648 1003 c7 -3 16 -2 19 1 4 3 -2 6 -13 5 -11 0 -14 -3 -6 -6z"/>
</g>
</svg>
